<?xml version="1.0" encoding="utf-8"?>
<!-- Generator: Adobe Illustrator 28.1.0, SVG Export Plug-In . SVG Version: 6.00 Build 0)  -->
<svg version="1.1" id="Capa_1" xmlns="http://www.w3.org/2000/svg" xmlns:xlink="http://www.w3.org/1999/xlink" x="0px" y="0px"
	 viewBox="0 0 424.2 213" style="enable-background:new 0 0 424.2 213;" xml:space="preserve">
<style type="text/css">
	.st0{fill:#A90000;}
</style>
<path class="st0" d="M424.2,110.6v93.2c0,4.6-3.7,8.3-8.3,8.3h-8.6c-2.4,0-4.6-1-6.2-2.8L281.3,72.8v130.9c0,4.6-3.7,8.3-8.3,8.3
	h-14.2c-4.6,0-8.3-3.7-8.3-8.3V15.4c0-4.6,3.7-8.3,8.3-8.3h26.4c2.4,0,4.7,1,6.2,2.8l101.6,116.6v-24.7c0-0.5,0-1.1,0.1-1.6V15.4
	c0-4.6,3.7-8.3,8.3-8.3h14.4c4.6,0,8.3,3.7,8.3,8.3v94.2C424.2,110,424.2,110.3,424.2,110.6L424.2,110.6z"/>
<path class="st0" d="M222.9,64c-6.1-12.7-15.1-24.4-26.7-34.5C174.2,10.1,145-1,116.1-1S58,10.1,35.9,29.5C12.8,49.8,0,76.3,0,104.3
	s12.8,54.5,35.9,74.8c22.1,19.4,51.3,30.5,80.2,30.5s58.1-11.1,80.2-30.5c23.2-20.3,35.9-46.9,35.9-74.8
	C232.2,90.3,229,76.7,222.9,64L222.9,64z M176.9,133.7c-3.3,9.1-8.1,17.5-14.4,24.6c-12.3,13.9-28.8,21.6-46.3,21.6
	s-34.1-7.7-46.3-21.6c-12.5-14.2-19.4-33.4-19.4-54s6.9-39.8,19.4-54c12.3-14,28.8-21.6,46.3-21.6s34.1,7.7,46.3,21.6
	c12.5,14.2,19.4,33.4,19.4,54C181.9,114.6,180.2,124.5,176.9,133.7L176.9,133.7z"/>
</svg>
